<?xml version="1.0" encoding="UTF-8" standalone="no"?>
<svg
   width="383"
   zoomAndPan="magnify"
   viewBox="0 0 287.25 219"
   height="292"
   preserveAspectRatio="xMidYMid"
   version="1.0"
   id="svg292"
   sodipodi:docname="1_nospace.svg"
   inkscape:version="1.2.2 (1:1.2.2+202212051552+b0a8486541)"
   xmlns:inkscape="http://www.inkscape.org/namespaces/inkscape"
   xmlns:sodipodi="http://sodipodi.sourceforge.net/DTD/sodipodi-0.dtd"
   xmlns="http://www.w3.org/2000/svg"
   xmlns:svg="http://www.w3.org/2000/svg">
  <sodipodi:namedview
     id="namedview294"
     pagecolor="#ffffff"
     bordercolor="#000000"
     borderopacity="0.25"
     inkscape:showpageshadow="2"
     inkscape:pageopacity="0.0"
     inkscape:pagecheckerboard="0"
     inkscape:deskcolor="#d1d1d1"
     showgrid="false"
     inkscape:zoom="0.6675088"
     inkscape:cx="224.71614"
     inkscape:cy="239.69721"
     inkscape:window-width="1440"
     inkscape:window-height="863"
     inkscape:window-x="0"
     inkscape:window-y="0"
     inkscape:window-maximized="1"
     inkscape:current-layer="svg292"
     showborder="true" />
  <defs
     id="defs178">
    <g
       id="g167" />
    <clipPath
       id="id1">
      <path
         d="M 80.539062,172 H 298.03906 v 40 H 80.539062 Z m 0,0"
         clip-rule="nonzero"
         id="path169" />
    </clipPath>
    <clipPath
       id="id2">
      <path
         d="m 100.64063,220.32812 h 85.72265 v 63.58204 h -85.72265 z m 0,0"
         clip-rule="nonzero"
         id="path172" />
    </clipPath>
    <clipPath
       id="id3">
      <path
         d="M 198.77734,220.32812 H 284.5 v 63.58204 h -85.72266 z m 0,0"
         clip-rule="nonzero"
         id="path175" />
    </clipPath>
  </defs>
  <g
     fill="#ffffff"
     fill-opacity="1"
     id="g186"
     transform="translate(-46.06888,-65.627335)">
    <g
       transform="translate(65.877938,194.51024)"
       id="g184">
      <g
         id="g182">
        <path
           d="m 1.148438,-5.113281 -13.46875,-3.027344 15.75,-9.964844 c 0.46875,-0.296875 0.8125,-0.757812 0.941406,-1.320312 0.25,-1.125 -0.460938,-2.25 -1.585938,-2.503907 l -18.402344,-4.140624 -0.917968,4.089843 13.46875,3.03125 -15.75,9.964844 c -0.46875,0.296875 -0.8125,0.753906 -0.941406,1.316406 -0.253907,1.125 0.460937,2.253907 1.585937,2.503907 l 18.402344,4.140624 z m 0,0"
           id="path180" />
      </g>
    </g>
  </g>
  <g
     fill="#ffffff"
     fill-opacity="1"
     id="g194"
     transform="translate(-46.06888,-65.627335)">
    <g
       transform="translate(76.102437,158.75329)"
       id="g192">
      <g
         id="g190">
        <path
           d="m -15.566406,-14.980469 c -1.148438,2 -0.453125,4.574219 1.546875,5.722657 L 0.523438,-0.910156 2.609375,-4.542969 -4.660156,-8.71875 1.601562,-19.625 l 7.269532,4.175781 2.085937,-3.636719 -14.539062,-8.347656 c -2,-1.148437 -4.574219,-0.449218 -5.722657,1.550782 z m 3.636718,2.089844 6.257813,-10.90625 3.636719,2.085937 -6.261719,10.90625 z m 0,0"
           id="path188" />
      </g>
    </g>
  </g>
  <g
     fill="#ffffff"
     fill-opacity="1"
     id="g202"
     transform="translate(-46.06888,-65.627335)">
    <g
       transform="translate(96.433757,127.61269)"
       id="g200">
      <g
         id="g198">
        <path
           d="m 3.835938,-3.570312 -9.410157,-10.105469 18.625,0.664062 c 0.554688,0.01953 1.097657,-0.164062 1.519531,-0.554687 0.84375,-0.785156 0.894532,-2.121094 0.105469,-2.964844 l -12.851562,-13.804688 -3.066407,2.859376 9.40625,10.101562 -18.625,-0.664062 c -0.554687,-0.01953 -1.097656,0.164062 -1.519531,0.558593 -0.84375,0.785157 -0.890625,2.117188 -0.105469,2.960938 L 0.765625,-0.714844 Z m 0,0"
           id="path196" />
      </g>
    </g>
  </g>
  <g
     fill="#ffffff"
     fill-opacity="1"
     id="g210"
     transform="translate(-46.06888,-65.627335)">
    <g
       transform="translate(125.05708,103.86811)"
       id="g208">
      <g
         id="g206">
        <path
           d="m 16.042969,-7.746094 c 2.097656,-1.015625 2.941406,-3.542968 1.949219,-5.597656 l -5.464844,-11.324219 c -1.003906,-2.074219 -3.523438,-2.953125 -5.597656,-1.949219 l -11.324219,5.464844 c -2.074219,1.003906 -2.953125,3.523438 -1.953125,5.597656 l 5.46875,11.324219 C 0.125,-2.152344 2.640625,-1.277344 4.71875,-2.277344 Z M -2.570312,-17.375 8.75,-22.84375 14.21875,-11.519531 2.894531,-6.054688 Z m 0,0"
           id="path204" />
      </g>
    </g>
  </g>
  <g
     fill="#ffffff"
     fill-opacity="1"
     id="g218"
     transform="translate(-46.06888,-65.627335)">
    <g
       transform="translate(159.41742,89.639054)"
       id="g216">
      <g
         id="g214">
        <path
           d="m 5.179688,-0.78125 -2.0625,-13.652344 15,11.0625 c 0.445312,0.328125 1,0.484375 1.570312,0.398438 1.140625,-0.171875 1.929688,-1.246094 1.757812,-2.386719 l -2.816406,-18.652344 -4.144531,0.628907 2.0625,13.648437 -15,-11.058594 c -0.445313,-0.332031 -1,-0.484375 -1.5703125,-0.398437 -1.1406245,0.171875 -1.9296875,1.246094 -1.7578125,2.382812 L 1.035156,-0.15625 Z m 0,0"
           id="path212" />
      </g>
    </g>
  </g>
  <g
     fill="#ffffff"
     fill-opacity="1"
     id="g226"
     transform="translate(-46.06888,-65.627335)">
    <g
       transform="translate(196.44773,86.195635)"
       id="g224">
      <g
         id="g222">
        <path
           d="m 19.492188,-9.773438 -12.433594,-1.878906 1.253906,-8.289062 -4.144531,-0.625 -1.253907,8.289062 c -0.34375,2.28125 1.238282,4.425782 3.519532,4.769532 l 12.433594,1.878906 -0.625,4.144531 L 1.664062,-3.988281 1.035156,0.15625 17.613281,2.660156 c 2.28125,0.34375 4.425781,-1.238281 4.773438,-3.515625 l 2.503906,-16.578125 -4.144531,-0.628906 z m 0,0"
           id="path220" />
      </g>
    </g>
  </g>
  <g
     fill="#ffffff"
     fill-opacity="1"
     id="g234"
     transform="translate(-46.06888,-65.627335)">
    <g
       transform="translate(232.84255,93.845228)"
       id="g232">
      <g
         id="g230">
        <path
           d="m 13.832031,-16.59375 c -2.078125,-1.003906 -4.59375,-0.125 -5.597656,1.949219 L 0.945312,0.457031 4.71875,2.277344 l 7.289062,-15.097656 3.777344,1.824218 -7.292968,15.097656 3.773437,1.820313 7.292969,-15.097656 3.773437,1.824219 -7.289062,15.097656 3.773437,1.824218 7.289063,-15.101562 c 1.003906,-2.074219 0.125,-4.59375 -1.949219,-5.597656 z m 0,0"
           id="path228" />
      </g>
    </g>
  </g>
  <g
     fill="#ffffff"
     fill-opacity="1"
     id="g242"
     transform="translate(-46.06888,-65.627335)">
    <g
       transform="translate(265.35324,111.905)"
       id="g240">
      <g
         id="g238">
        <path
           d="m 13.039062,12.140625 c 1.707032,1.585937 4.371094,1.457031 5.921876,-0.210937 L 27.53125,2.726562 c 1.570312,-1.6875 1.476562,-4.355468 -0.210938,-5.925781 l -9.203124,-8.570312 c -1.6875,-1.570313 -4.355469,-1.472657 -5.925782,0.210937 L 3.625,-2.355469 C 2.050781,-0.667969 2.148438,2 3.835938,3.570312 Z m 2.222657,-20.839844 9.203125,8.566407 -8.570313,9.203124 -9.203125,-8.566406 z m 0,0"
           id="path236" />
      </g>
    </g>
  </g>
  <g
     fill="#ffffff"
     fill-opacity="1"
     id="g250"
     transform="translate(-46.06888,-65.627335)">
    <g
       transform="translate(291.0778,138.76291)"
       id="g248">
      <g
         id="g246">
        <path
           d="m 8.871094,15.449219 c 1.148437,2 3.722656,2.695312 5.722656,1.546875 L 29.132812,8.648438 27.046875,5.015625 12.503906,13.363281 6.242188,2.457031 20.785156,-5.890625 18.695312,-9.527344 4.15625,-1.179688 c -2,1.148438 -2.695312,3.722657 -1.546875,5.722657 z m 0,0"
           id="path244" />
      </g>
    </g>
  </g>
  <g
     fill="#ffffff"
     fill-opacity="1"
     id="g258"
     transform="translate(-46.06888,-65.627335)">
    <g
       transform="translate(307.71999,172.02155)"
       id="g256">
      <g
         id="g254">
        <path
           d="M 25.277344,16.871094 21.597656,0.511719 c -0.507812,-2.25 -2.761718,-3.675781 -5.011718,-3.167969 L 12.5,-1.738281 C 10.25,-1.230469 8.824219,1.023438 9.328125,3.273438 L 12.089844,15.539062 8,16.460938 4.320312,0.101562 0.230469,1.023438 3.910156,17.378906 c 0.507813,2.25 2.761719,3.675782 5.007813,3.171875 l 4.089843,-0.921875 c 2.25,-0.503906 3.675782,-2.761718 3.171876,-5.007812 L 13.417969,2.351562 17.507812,1.433594 21.1875,17.789062 Z m 0,0"
           id="path252" />
      </g>
    </g>
  </g>
  <g
     clip-path="url(#id1)"
     id="g262"
     transform="translate(-46.06888,-65.627335)">
    <path
       fill="#a4a4a3"
       d="m 189.29297,211.93359 c 59.89844,0 108.7539,-8.9414 108.7539,-19.89843 0,-10.96094 -48.85546,-19.89844 -108.7539,-19.89844 -59.89844,0 -108.753908,8.9375 -108.753908,19.89844 0,10.95703 48.855468,19.89843 108.753908,19.89843"
       fill-opacity="1"
       fill-rule="evenodd"
       id="path260" />
  </g>
  <path
     fill="#47423e"
     d="m 143.22409,142.90001 c 58.02344,0 105.35156,-7.40625 105.35156,-16.49218 0,-9.08594 -47.32812,-16.4961 -105.35156,-16.4961 -58.023439,0 -105.347658,7.41016 -105.347658,16.4961 0,9.08593 47.324219,16.49218 105.347658,16.49218"
     fill-opacity="1"
     fill-rule="evenodd"
     id="path264" />
  <path
     fill="#a4a4a3"
     d="m 204.50143,107.97423 c -1.75781,-9.042975 -3.92969,-18.488285 -6.26562,-26.695315 -3.66016,-12.84766 -8.06641,-23.07422 -12.6211,-25.37891 -6.64453,-3.36718 -13.74609,-0.96484 -21.80859,1.76563 -5.41797,1.83203 -11.36719,3.84766 -17.28125,3.84766 -6.34375,0 -12.58594,-1.8125 -18.23828,-3.44922 -9.66016,-2.80469 -17.90625,-5.19532 -24.91016,0.4375 -3.23437,2.60547 -6.660149,12.5664 -9.656249,24.78515 -2.73828,11.16407 -5.375,25.019535 -7.3789,36.718755 17.234369,4.92188 37.925779,7.79297 60.183589,7.79297 22.23047,0 42.90625,-2.86328 60.12891,-7.78125 l -2.15235,-12.04297"
     fill-opacity="1"
     fill-rule="nonzero"
     id="path266" />
  <path
     fill="#a4a4a3"
     d="m 204.50143,107.97423 -0.0117,-0.0664 c -8.1875,2.22265 -17.10937,3.98828 -26.57812,5.21093 -9.92969,1.28516 -20.46875,1.97657 -31.38672,1.97657 v 0.5664 c -0.15625,0 -0.28516,-0.125 -0.28516,-0.28125 0,-0.15625 0.12891,-0.28515 0.28516,-0.28515 0.15625,0 0.28125,0.1289 0.28125,0.28515 0,0.15625 -0.125,0.28125 -0.28125,0.28125 10.92969,0 21.49609,-0.6914 31.46094,-1.98047 9.47656,-1.22656 18.41015,-2.99218 26.60547,-5.21484 z m -0.1875,-0.94922 c -8.11719,2.1836 -16.95703,3.92579 -26.32812,5.14063 -9.96485,1.28516 -20.53125,1.98047 -31.46094,1.98047 0.15625,0 0.28125,-0.125 0.28125,-0.28125 0,-0.16016 -0.125,-0.28516 -0.28125,-0.28516 -0.15625,0 -0.28516,0.125 -0.28516,0.28516 0,0.15625 0.12891,0.28125 0.28516,0.28125 v -0.56641 c 10.91797,0 21.45703,-0.6914 31.38672,-1.97656 9.35937,-1.21094 18.18359,-2.95313 26.29297,-5.13672 z m -0.28515,-1.4414 c -8.03907,2.14844 -16.78125,3.86328 -26.04297,5.0625 -9.96485,1.28906 -20.53125,1.98047 -31.46094,1.98047 0.15625,0 0.28125,-0.125 0.28125,-0.28125 0,-0.15625 -0.125,-0.28125 -0.28125,-0.28125 -0.15625,0 -0.28516,0.125 -0.28516,0.28125 0,0.15625 0.12891,0.28125 0.28516,0.28125 v -0.5625 c 10.91797,0 21.45703,-0.69532 31.38672,-1.98047 9.24609,-1.19531 17.97656,-2.90625 26.0039,-5.05469 z m -0.28907,-1.44141 c -7.96093,2.11719 -16.60547,3.80469 -25.7539,4.98828 -9.96485,1.28907 -20.53125,1.98047 -31.46094,1.98047 0.15625,0 0.28125,-0.125 0.28125,-0.28125 0,-0.16015 -0.125,-0.28515 -0.28125,-0.28515 -0.15625,0 -0.28516,0.125 -0.28516,0.28515 0,0.15625 0.12891,0.28125 0.28516,0.28125 v -0.5664 c 10.91797,0 21.45703,-0.69141 31.38672,-1.97657 9.13281,-1.17968 17.76172,-2.86718 25.71094,-4.98047 z m -0.30078,-1.4375 c -7.875,2.07813 -16.41797,3.73828 -25.45312,4.91016 -9.96485,1.28515 -20.53125,1.98047 -31.46094,1.98047 0.15625,0 0.28125,-0.125 0.28125,-0.28516 0,-0.15625 -0.125,-0.28125 -0.28125,-0.28125 -0.15625,0 -0.28516,0.125 -0.28516,0.28125 0,0.16016 0.12891,0.28516 0.28516,0.28516 v -0.56641 c 10.91797,0 21.45703,-0.69531 31.38672,-1.97656 9.01953,-1.16797 17.54687,-2.82422 25.41015,-4.90235 z m -0.30469,-1.4375 c -7.78906,2.04297 -16.23046,3.67188 -25.14843,4.82813 -9.96485,1.28906 -20.53125,1.98047 -31.46094,1.98047 0.15625,0 0.28125,-0.125 0.28125,-0.28125 0,-0.15625 -0.125,-0.28125 -0.28125,-0.28125 -0.15625,0 -0.28516,0.125 -0.28516,0.28125 0,0.15625 0.12891,0.28125 0.28516,0.28125 v -0.5625 c 10.91797,0 21.45703,-0.69532 31.38672,-1.98047 8.90234,-1.15235 17.32422,-2.78125 25.10547,-4.82032 z m -0.30468,-1.433595 -0.125,-0.5586 c -7.69141,2.003915 -16.00782,3.605475 -24.79297,4.742195 -9.92969,1.28516 -20.46875,1.97656 -31.38672,1.97656 v 0.56641 c -0.15625,0 -0.28516,-0.125 -0.28516,-0.28516 0,-0.15625 0.12891,-0.28125 0.28516,-0.28125 0.15625,0 0.28125,0.125 0.28125,0.28125 0,0.16016 -0.125,0.28516 -0.28125,0.28516 10.92969,0 21.49609,-0.69141 31.46094,-1.98047 8.80078,-1.14062 17.13672,-2.74609 24.84375,-4.746095 z m -0.31641,-1.4375 -0.125,-0.55469 c -7.60547,1.96484 -15.8125,3.539065 -24.47656,4.660165 -9.92969,1.28125 -20.46875,1.97656 -31.38672,1.97656 v 0.56641 c -0.15625,0 -0.28516,-0.12891 -0.28516,-0.28516 0,-0.15625 0.12891,-0.28125 0.28516,-0.28125 0.15625,0 0.28125,0.125 0.28125,0.28125 0,0.15625 -0.125,0.28516 -0.28125,0.28516 10.92969,0 21.49609,-0.69532 31.46094,-1.98438 8.68359,-1.12109 16.91015,-2.69922 24.52734,-4.664065 z m -0.32031,-1.4336 -0.125,-0.55468 c -7.51563,1.92578 -15.61719,3.47265 -24.15625,4.574225 -9.92969,1.28515 -20.46875,1.97656 -31.38672,1.97656 v 0.5664 c -0.15625,0 -0.28516,-0.125 -0.28516,-0.28515 0,-0.15235 0.12891,-0.28125 0.28516,-0.28125 0.15625,0 0.28125,0.1289 0.28125,0.28125 0,0.16015 -0.125,0.28515 -0.28125,0.28515 10.92969,0 21.49609,-0.6914 31.46094,-1.98046 8.5625,-1.10938 16.67968,-2.660165 24.20703,-4.582045 z m -0.32422,-1.43359 -0.12891,-0.55469 c -7.42578,1.88672 -15.41015,3.40235 -23.82812,4.49219 -9.92969,1.285165 -20.46875,1.976565 -31.38672,1.976565 v 0.56641 c -0.15625,0 -0.28516,-0.12891 -0.28516,-0.28516 0,-0.15625 0.12891,-0.28125 0.28516,-0.28125 0.15625,0 0.28125,0.125 0.28125,0.28125 0,0.15625 -0.125,0.28516 -0.28125,0.28516 10.92969,0 21.49609,-0.69141 31.46094,-1.98438 8.4375,-1.089845 16.4414,-2.609375 23.88281,-4.496095 z m -0.33203,-1.43359 c -7.34375,1.84765 -15.23828,3.33984 -23.55078,4.41406 -9.96485,1.28906 -20.53125,1.984375 -31.46094,1.984375 0.15625,0 0.28125,-0.1289 0.28125,-0.28515 0,-0.15625 -0.125,-0.285165 -0.28125,-0.285165 -0.15625,0 -0.28516,0.128915 -0.28516,0.285165 0,0.15625 0.12891,0.28515 0.28516,0.28515 v -0.570315 c 10.91797,0 21.45703,-0.6875 31.38672,-1.97265 8.29297,-1.07422 16.16797,-2.5625 23.49219,-4.40625 z m -0.33985,-1.4336 c -7.25,1.8086 -15.02734,3.26953 -23.21093,4.33203 -9.96485,1.28907 -20.53125,1.98438 -31.46094,1.98438 0.15625,0 0.28125,-0.13281 0.28125,-0.28516 0,-0.15625 -0.125,-0.28515 -0.28125,-0.28515 -0.15625,0 -0.28516,0.1289 -0.28516,0.28515 0,0.15235 0.12891,0.28516 0.28516,0.28516 v -0.57031 c 10.91797,0 21.45703,-0.69141 31.38672,-1.97657 8.16406,-1.05468 15.92187,-2.51562 23.14844,-4.32031 z m -0.34765,-1.42968 c -7.14844,1.76953 -14.8086,3.19921 -22.86328,4.24218 -9.96485,1.28907 -20.53125,1.98438 -31.46094,1.98438 0.15625,0 0.28125,-0.12891 0.28125,-0.28516 0,-0.15625 -0.125,-0.28515 -0.28125,-0.28515 -0.15625,0 -0.28516,0.1289 -0.28516,0.28515 0,0.15625 0.12891,0.28516 0.28516,0.28516 v -0.57031 c 10.91797,0 21.45703,-0.6875 31.38672,-1.97266 8.03125,-1.03906 15.67187,-2.46875 22.80469,-4.23438 z m -0.35156,-1.4336 c -7.04688,1.73047 -14.58985,3.13672 -22.51172,4.16016 -9.96485,1.28906 -20.53125,1.98437 -31.46094,1.98437 0.15625,0 0.28125,-0.1289 0.28125,-0.28515 0,-0.15625 -0.125,-0.28516 -0.28125,-0.28516 -0.15625,0 -0.28516,0.12891 -0.28516,0.28516 0,0.15625 0.12891,0.28515 0.28516,0.28515 v -0.57031 c 10.91797,0 21.45703,-0.69141 31.38672,-1.97656 7.89844,-1.01953 15.42187,-2.41797 22.44922,-4.14453 z m -0.35938,-1.42969 -0.14062,-0.54687 c -6.92579,1.68359 -14.32422,3.05469 -22.08594,4.05859 -9.92969,1.28516 -20.46875,1.97657 -31.38672,1.97657 v 0.5664 c -0.15625,0 -0.28516,-0.1289 -0.28516,-0.28125 0,-0.16015 0.12891,-0.28515 0.28516,-0.28515 0.15625,0 0.28125,0.125 0.28125,0.28515 0,0.15235 -0.125,0.28125 -0.28125,0.28125 10.92969,0 21.49609,-0.69531 31.46094,-1.98437 7.78906,-1.00391 15.20703,-2.37891 22.15234,-4.07032 z m -0.36719,-1.42578 -0.14062,-0.54687 c -6.82031,1.64062 -14.09375,2.98047 -21.71875,3.96484 -9.92969,1.28906 -20.46875,1.98047 -31.38672,1.98047 v 0.56641 c -0.15625,0 -0.28516,-0.12891 -0.28516,-0.28516 0,-0.15625 0.12891,-0.28125 0.28516,-0.28125 0.15625,0 0.28125,0.125 0.28125,0.28125 0,0.15625 -0.125,0.28516 -0.28125,0.28516 10.92969,0 21.49609,-0.69532 31.46094,-1.98438 7.65234,-0.99219 14.94531,-2.33203 21.78515,-3.98047 z m -0.37109,-1.42578 -0.14844,-0.54687 c -6.71094,1.60156 -13.85547,2.90625 -21.33984,3.875 -9.92969,1.28515 -20.46875,1.97656 -31.38672,1.97656 v 0.56641 c -0.15625,0 -0.28516,-0.125 -0.28516,-0.28125 0,-0.16016 0.12891,-0.28516 0.28516,-0.28516 0.15625,0 0.28125,0.125 0.28125,0.28516 0,0.15625 -0.125,0.28125 -0.28125,0.28125 10.92969,0 21.49609,-0.69141 31.46094,-1.98047 7.51172,-0.97266 14.67968,-2.28516 21.41406,-3.89063 z m -0.38281,-1.42969 -0.15235,-0.54687 c -6.59765,1.5625 -13.60937,2.83984 -20.95312,3.78906 -9.92969,1.28516 -20.46875,1.97656 -31.38672,1.97656 v 0.56641 c -0.15625,0 -0.28516,-0.125 -0.28516,-0.28516 0,-0.15625 0.12891,-0.28125 0.28516,-0.28125 0.15625,0 0.28125,0.125 0.28125,0.28125 0,0.16016 -0.125,0.28516 -0.28125,0.28516 10.92969,0 21.49609,-0.69531 31.46094,-1.98047 7.37109,-0.95703 14.41015,-2.23437 21.03125,-3.80469 z m -0.39453,-1.42187 c -6.50391,1.52344 -13.41407,2.76953 -20.63672,3.70703 -9.96485,1.28906 -20.53125,1.98047 -31.46094,1.98047 0.15625,0 0.28125,-0.125 0.28125,-0.28125 0,-0.15625 -0.125,-0.28125 -0.28125,-0.28125 -0.15625,0 -0.28516,0.125 -0.28516,0.28125 0,0.15625 0.12891,0.28125 0.28516,0.28125 v -0.5625 c 10.91797,0 21.45703,-0.69531 31.38672,-1.98047 7.19531,-0.92969 14.07812,-2.17187 20.55859,-3.69141 z m -0.39844,-1.42578 c -6.38672,1.48437 -13.16016,2.69922 -20.23828,3.61719 -9.96485,1.28906 -20.53125,1.98046 -31.46094,1.98046 0.15625,0 0.28125,-0.125 0.28125,-0.28515 0,-0.15625 -0.125,-0.28125 -0.28125,-0.28125 -0.15625,0 -0.28516,0.125 -0.28516,0.28125 0,0.16015 0.12891,0.28515 0.28516,0.28515 v -0.5664 c 10.91797,0 21.45703,-0.69141 31.38672,-1.97656 7.04687,-0.91016 13.79297,-2.125 20.15625,-3.59766 z m -0.41406,-1.42188 c -6.26563,1.4375 -12.89844,2.625 -19.82422,3.51953 -9.96485,1.28907 -20.53125,1.98438 -31.46094,1.98438 0.15625,0 0.28125,-0.12891 0.28125,-0.28516 0,-0.15625 -0.125,-0.28125 -0.28125,-0.28125 -0.15625,0 -0.28516,0.125 -0.28516,0.28125 0,0.15625 0.12891,0.28516 0.28516,0.28516 v -0.56641 c 10.91797,0 21.45703,-0.69531 31.38672,-1.97656 6.89062,-0.89453 13.5,-2.07031 19.73828,-3.50391 z m -0.42188,-1.42187 c -6.14453,1.39844 -12.63672,2.55078 -19.40234,3.42578 -9.96485,1.28906 -20.53125,1.98047 -31.46094,1.98047 0.15625,0 0.28125,-0.125 0.28125,-0.28125 0,-0.15625 -0.125,-0.28516 -0.28125,-0.28516 -0.15625,0 -0.28516,0.12891 -0.28516,0.28516 0,0.15625 0.12891,0.28125 0.28516,0.28125 v -0.56641 c 10.91797,0 21.45703,-0.6914 31.38672,-1.97656 6.73437,-0.87109 13.19531,-2.01563 19.3125,-3.40625 z m -0.4375,-1.41406 -0.17187,-0.54297 c -5.98438,1.34375 -12.29297,2.45312 -18.86719,3.30468 -9.92969,1.28516 -20.46875,1.97657 -31.38672,1.97657 v 0.5664 c -0.15625,0 -0.28516,-0.1289 -0.28516,-0.28515 0,-0.15625 0.12891,-0.28125 0.28516,-0.28125 0.15625,0 0.28125,0.125 0.28125,0.28125 0,0.15625 -0.125,0.28515 -0.28125,0.28515 10.92969,0 21.49609,-0.6914 31.46094,-1.98437 6.60937,-0.85547 12.95312,-1.97266 18.96484,-3.32031 z m -0.45312,-1.41797 -0.17579,-0.54297 c -5.84765,1.30078 -12.0039,2.375 -18.41015,3.20703 -9.92969,1.28125 -20.46875,1.97266 -31.38672,1.97266 v 0.57031 c -0.15625,0 -0.28516,-0.12891 -0.28516,-0.28516 0,-0.15625 0.12891,-0.28515 0.28516,-0.28515 0.15625,0 0.28125,0.1289 0.28125,0.28515 0,0.15625 -0.125,0.28516 -0.28125,0.28516 10.92969,0 21.49609,-0.69531 31.46094,-1.98438 6.4414,-0.83593 12.63672,-1.91797 18.51172,-3.22265 z m -0.46875,-1.41407 c -0.0586,-0.18359 -0.1211,-0.35937 -0.1836,-0.53906 -5.70312,1.25 -11.70312,2.29297 -17.93359,3.09766 -9.92969,1.28515 -20.46875,1.97656 -31.38672,1.97656 v 0.57031 c -0.15625,0 -0.28516,-0.13281 -0.28516,-0.28906 0,-0.15234 0.12891,-0.28125 0.28516,-0.28125 0.15625,0 0.28125,0.12891 0.28125,0.28125 0,0.15625 -0.125,0.28906 -0.28125,0.28906 10.92969,0 21.49609,-0.69531 31.46094,-1.98828 6.26953,-0.80859 12.30468,-1.85547 18.04297,-3.11719 z m -0.48438,-1.41015 c -5.59375,1.21094 -11.46484,2.22265 -17.55859,3.01172 -9.96485,1.28906 -20.53125,1.98437 -31.46094,1.98437 0.15625,0 0.28125,-0.1289 0.28125,-0.28515 0,-0.15625 -0.125,-0.28516 -0.28125,-0.28516 -0.15625,0 -0.28516,0.12891 -0.28516,0.28516 0,0.15625 0.12891,0.28515 0.28516,0.28515 v -0.57031 c 10.91797,0 21.45703,-0.6875 31.38672,-1.97266 6.05469,-0.78515 11.88672,-1.78906 17.44531,-2.99218 0.0586,0.17968 0.125,0.35546 0.1875,0.53906 z m -0.50391,-1.41016 c -5.4414,1.16406 -11.14062,2.14063 -17.05468,2.90625 -9.96485,1.28906 -20.53125,1.98438 -31.46094,1.98438 0.15625,0 0.28125,-0.12891 0.28125,-0.28516 0,-0.15625 -0.125,-0.28516 -0.28125,-0.28516 -0.15625,0 -0.28516,0.12891 -0.28516,0.28516 0,0.15625 0.12891,0.28516 0.28516,0.28516 v -0.57032 c 10.91797,0 21.45703,-0.6875 31.38672,-1.97656 5.86719,-0.75781 11.52734,-1.72656 16.92969,-2.8789 0.0664,0.17968 0.13281,0.35546 0.19921,0.53515 z m -0.52734,-1.40625 c -5.28125,1.11719 -10.80469,2.05469 -16.52734,2.79297 -9.96485,1.28906 -20.53125,1.98438 -31.46094,1.98438 0.15625,0 0.28125,-0.12891 0.28125,-0.28125 0,-0.16016 -0.125,-0.28516 -0.28125,-0.28516 -0.15625,0 -0.28516,0.125 -0.28516,0.28516 0,0.15234 0.12891,0.28125 0.28516,0.28125 v -0.56641 c 10.91797,0 21.45703,-0.69141 31.38672,-1.97656 5.67578,-0.73438 11.15234,-1.66407 16.39453,-2.76563 0.0703,0.17578 0.13672,0.35547 0.20703,0.53125 z m -0.55078,-1.39844 c -0.0742,-0.17968 -0.14453,-0.35546 -0.21875,-0.53515 -5.07031,1.05469 -10.35938,1.9414 -15.83203,2.64844 -9.92969,1.28906 -20.46875,1.97656 -31.38672,1.97656 v 0.57031 c -0.15625,0 -0.28516,-0.12891 -0.28516,-0.28516 0,-0.15625 0.12891,-0.28515 0.28516,-0.28515 0.15625,0 0.28125,0.1289 0.28125,0.28515 0,0.15625 -0.125,0.28516 -0.28125,0.28516 10.92969,0 21.49609,-0.69531 31.46094,-1.98437 5.52343,-0.71485 10.86328,-1.61329 15.97656,-2.67579 z m -0.57813,-1.39843 c -0.0781,-0.17969 -0.15234,-0.35547 -0.23046,-0.53125 -4.89063,1 -9.98438,1.84765 -15.24219,2.52734 -9.92969,1.28516 -20.46875,1.97656 -31.38672,1.97656 v 0.56641 c -0.15625,0 -0.28516,-0.125 -0.28516,-0.28125 0,-0.16016 0.12891,-0.28516 0.28516,-0.28516 0.15625,0 0.28125,0.125 0.28125,0.28516 0,0.15625 -0.125,0.28125 -0.28125,0.28125 10.92969,0 21.49609,-0.69141 31.46094,-1.98047 5.3125,-0.6875 10.46093,-1.54687 15.39843,-2.55859 z m -0.61328,-1.39453 c -0.082,-0.17579 -0.16015,-0.35157 -0.24218,-0.52735 -4.69922,0.94531 -9.58204,1.75 -14.61719,2.40235 -9.92969,1.28515 -20.46875,1.97656 -31.38672,1.97656 v 0.5664 c -0.15625,0 -0.28516,-0.125 -0.28516,-0.28515 0,-0.15625 0.12891,-0.28125 0.28516,-0.28125 0.15625,0 0.28125,0.125 0.28125,0.28125 0,0.16015 -0.125,0.28515 -0.28125,0.28515 10.92969,0 21.49609,-0.69531 31.46094,-1.98046 5.09375,-0.66016 10.03515,-1.48047 14.78515,-2.4375 z m -0.65234,-1.38672 c -4.54688,0.90234 -9.26953,1.67187 -14.13281,2.30468 -9.96485,1.28907 -20.53125,1.98047 -31.46094,1.98047 0.15625,0 0.28125,-0.125 0.28125,-0.28125 0,-0.15625 -0.125,-0.28515 -0.28125,-0.28515 -0.15625,0 -0.28516,0.1289 -0.28516,0.28515 0,0.15625 0.12891,0.28125 0.28516,0.28125 v -0.5664 c 10.91797,0 21.45703,-0.69141 31.38672,-1.97657 4.79687,-0.62109 9.45703,-1.3789 13.95312,-2.26953 0.0859,0.17578 0.17188,0.35157 0.25391,0.52735 z m -0.69531,-1.37891 c -4.33594,0.84375 -8.82422,1.57031 -13.4375,2.16797 -9.96485,1.28906 -20.53125,1.98047 -31.46094,1.98047 0.15625,0 0.28125,-0.125 0.28125,-0.28516 0,-0.15625 -0.125,-0.28125 -0.28125,-0.28125 -0.15625,0 -0.28516,0.125 -0.28516,0.28125 0,0.16016 0.12891,0.28516 0.28516,0.28516 v -0.56641 c 10.91797,0 21.45703,-0.6914 31.38672,-1.97656 4.54297,-0.58984 8.96094,-1.30078 13.23437,-2.12891 0.0898,0.17188 0.1836,0.34766 0.27735,0.52344 z m -0.75391,-1.37109 c -4.10156,0.78125 -8.33594,1.45703 -12.68359,2.01953 -9.96485,1.28906 -20.53125,1.98437 -31.46094,1.98437 0.15625,0 0.28125,-0.1289 0.28125,-0.28515 0,-0.15625 -0.125,-0.28125 -0.28125,-0.28125 -0.15625,0 -0.28516,0.125 -0.28516,0.28125 0,0.15625 0.12891,0.28515 0.28516,0.28515 v -0.5664 c 10.91797,0 21.45703,-0.69532 31.38672,-1.97657 4.26562,-0.55468 8.42187,-1.21484 12.44922,-1.98046 0.10156,0.17187 0.20312,0.34375 0.30859,0.51953 z m -0.83594,-1.35938 c -0.11328,-0.17578 -0.23047,-0.34765 -0.34375,-0.51172 -3.7539,0.69141 -7.61718,1.30078 -11.57812,1.8125 -9.92969,1.28516 -20.46875,1.97657 -31.38672,1.97657 v 0.5664 c -0.15625,0 -0.28516,-0.125 -0.28516,-0.28515 0,-0.15235 0.12891,-0.28125 0.28516,-0.28125 0.15625,0 0.28125,0.1289 0.28125,0.28125 0,0.16015 -0.125,0.28515 -0.28125,0.28515 10.92969,0 21.49609,-0.6914 31.46094,-1.98047 4.05468,-0.52734 8.00781,-1.14843 11.84765,-1.86328 z m -0.94531,-1.34375 c -0.13281,-0.17187 -0.26562,-0.34375 -0.39844,-0.5039 -3.4375,0.61718 -6.96875,1.16406 -10.57812,1.63281 -9.92969,1.28515 -20.46875,1.97656 -31.38672,1.97656 v 0.56641 c -0.15625,0 -0.28516,-0.12891 -0.28516,-0.28516 0,-0.15625 0.12891,-0.28125 0.28516,-0.28125 0.15625,0 0.28125,0.125 0.28125,0.28125 0,0.15625 -0.125,0.28516 -0.28125,0.28516 10.92969,0 21.49609,-0.69141 31.46094,-1.98438 3.72265,-0.48047 7.35937,-1.04687 10.90234,-1.6875 z m -1.11719,-1.3164 c -3.1875,0.55859 -6.45312,1.05859 -9.78515,1.48828 -8.27344,1.07031 -16.95313,1.73047 -25.91797,1.92187 1.01562,-0.17969 2.03125,-0.39844 3.03906,-0.64844 7.87109,-0.26562 15.5,-0.89062 22.80469,-1.83203 3.18359,-0.41406 6.30859,-0.88672 9.36328,-1.41797 0.16406,0.15235 0.32812,0.3125 0.49609,0.48829 z m -1.46484,-1.26563 c -2.72266,0.45703 -5.49609,0.87109 -8.32031,1.23438 -6.10157,0.78906 -12.42188,1.35546 -18.91797,1.67578 0.71484,-0.21875 1.42187,-0.44922 2.125,-0.67969 5.72656,-0.33203 11.3125,-0.85547 16.71875,-1.55469 2.58594,-0.33594 5.13281,-0.71094 7.63281,-1.12109 l 0.0703,0.0352 c 0.23438,0.11719 0.46094,0.25391 0.69141,0.41016 z m -2.35938,-1.13281 c -0.40234,-0.14844 -0.80859,-0.27735 -1.21875,-0.38281 -1.58593,0.23828 -3.1914,0.46484 -4.8164,0.67578 -3.58985,0.46093 -7.25781,0.85156 -10.9961,1.15625 -0.73046,0.23828 -1.47265,0.48437 -2.21875,0.73828 4.53125,-0.32813 8.96485,-0.77735 13.28907,-1.33594 2.00781,-0.26172 4,-0.54297 5.96093,-0.85156 z m -43.79296,5.79297 c -1.1875,-0.19141 -2.35938,-0.42188 -3.51954,-0.6836 -7.41796,-0.28515 -14.62109,-0.89062 -21.52734,-1.78906 -3.26172,-0.42187 -6.45703,-0.90625 -9.58203,-1.45312 -0.25,0.14062 -0.49219,0.28515 -0.73828,0.4414 3.33594,0.59766 6.7539,1.1211 10.24609,1.57422 8.02735,1.03906 16.4375,1.69141 25.1211,1.91016 z m -8.17188,-1.85547 c -5.80469,-0.33203 -11.46484,-0.86328 -16.94922,-1.57031 -2.74609,-0.35547 -5.44531,-0.75782 -8.09765,-1.20313 0.34375,-0.14844 0.6914,-0.28125 1.03906,-0.40234 2.33984,0.38281 4.71875,0.73047 7.13281,1.04297 4.64063,0.60156 9.41797,1.07421 14.30078,1.40234 0.84766,0.24609 1.70703,0.49219 2.57422,0.73047 z m -7.10156,-2.02735 c -3.33985,-0.28906 -6.625,-0.64453 -9.84766,-1.0625 -1.60937,-0.20703 -3.20703,-0.42968 -4.78515,-0.67187 0.72265,-0.12891 1.45703,-0.21094 2.20312,-0.25 0.88281,0.125 1.76563,0.24609 2.65625,0.35937 2.09766,0.27344 4.22266,0.51954 6.375,0.73829 1.11328,0.26562 2.24219,0.5664 3.39844,0.88671 z m -21.16406,1.14844 c -0.11329,0.0859 -0.22657,0.17578 -0.33985,0.26563 -0.0781,0.0664 -0.15625,0.13281 -0.23437,0.20312 3.85547,0.71875 7.82422,1.34766 11.89062,1.8711 9.97656,1.29296 20.54688,1.98828 31.49219,1.98828 v -0.56641 c -10.92969,0 -21.48047,-0.69531 -31.41797,-1.98047 -3.89453,-0.5039 -7.69531,-1.10156 -11.39062,-1.78125 z m -1.32032,1.26953 c -0.125,0.15625 -0.2539,0.32422 -0.3789,0.5 4.20312,0.8125 8.54687,1.51172 13.01562,2.08594 9.97656,1.29297 20.54688,1.98828 31.49219,1.98828 v -0.5664 c -10.92969,0 -21.48047,-0.69141 -31.41797,-1.98047 -4.35937,-0.5625 -8.60156,-1.24219 -12.71094,-2.02735 z m -0.9375,1.33594 c 4.39844,0.86328 8.95703,1.60156 13.64844,2.21094 9.9375,1.28515 20.48828,1.98047 31.41797,1.98047 v 0.5664 c -10.94531,0 -21.51563,-0.69531 -31.49219,-1.98828 -4.77344,-0.61719 -9.41015,-1.37109 -13.88281,-2.2539 0.10547,-0.17969 0.20703,-0.35157 0.30859,-0.51563 z m -0.77343,1.36328 c 4.63671,0.92578 9.45312,1.71875 14.42187,2.36328 9.9375,1.28907 20.48828,1.98047 31.41797,1.98047 v 0.56641 c -10.94531,0 -21.51563,-0.69531 -31.49219,-1.98828 -5.03515,-0.64844 -9.91797,-1.45313 -14.61719,-2.39844 0.0898,-0.17969 0.17969,-0.35156 0.26954,-0.52344 z m -0.6836,1.37891 c 4.84766,0.98828 9.89453,1.82812 15.10547,2.5039 9.9375,1.28516 20.48828,1.97657 31.41797,1.97657 v 0.5664 c -10.94531,0 -21.51563,-0.6914 -31.49219,-1.98437 -5.26953,-0.6836 -10.37109,-1.53125 -15.273439,-2.53516 0.082,-0.17969 0.16016,-0.35547 0.242189,-0.52734 z m -0.617189,1.39062 c -0.0742,0.17188 -0.14843,0.35157 -0.22265,0.53125 5.082029,1.05469 10.386719,1.94532 15.871089,2.65625 9.97656,1.29297 20.54688,1.98828 31.49219,1.98828 v -0.5664 c -10.92969,0 -21.48047,-0.69141 -31.41797,-1.98047 -5.43359,-0.70313 -10.6875,-1.58594 -15.722659,-2.62891 z m -0.57031,1.39844 c -0.0703,0.17578 -0.14062,0.35156 -0.21094,0.53125 5.253909,1.10938 10.742189,2.03906 16.429689,2.77734 9.97656,1.29297 20.54688,1.98438 31.49219,1.98438 v -0.56641 c -10.92969,0 -21.48047,-0.6914 -31.41797,-1.98047 -5.64062,-0.73046 -11.08594,-1.65234 -16.292969,-2.74609 z m -0.53515,1.40234 c -0.0664,0.17969 -0.12891,0.35547 -0.19532,0.53907 5.410159,1.15234 11.074219,2.12109 16.949219,2.88281 9.97656,1.29297 20.54688,1.98828 31.49219,1.98828 v -0.57031 c -10.92969,0 -21.48047,-0.69141 -31.41797,-1.97656 -5.83203,-0.75782 -11.45703,-1.71875 -16.828119,-2.86329 z m -0.50391,1.41016 c 5.523439,1.19141 11.316409,2.1875 17.332029,2.96875 9.9375,1.28906 20.48828,1.98047 31.41797,1.98047 v 0.56641 c -10.94531,0 -21.51563,-0.69532 -31.49219,-1.98438 -6.05469,-0.78516 -11.88672,-1.78906 -17.445309,-2.99219 0.0625,-0.18359 0.125,-0.35937 0.1875,-0.53906 z m -0.48047,1.41016 c 5.667969,1.24218 11.624999,2.27343 17.812499,3.07422 9.9375,1.28906 20.48828,1.98046 31.41797,1.98046 v 0.57032 c -10.94531,0 -21.51563,-0.69532 -31.49219,-1.98828 -6.22656,-0.80469 -12.21484,-1.84766 -17.914059,-3.09375 0.0586,-0.1836 0.11719,-0.36329 0.17578,-0.54297 z m -0.45703,1.41797 c 5.804689,1.28515 11.914059,2.35156 18.269529,3.17187 9.9375,1.28906 20.48828,1.98047 31.41797,1.98047 v 0.57031 c -10.94531,0 -21.51563,-0.69531 -31.49219,-1.98828 -6.39062,-0.82812 -12.53125,-1.89844 -18.367189,-3.19141 0.0586,-0.18359 0.11329,-0.36328 0.17188,-0.54296 z m -0.44141,1.41796 -0.16406,0.54297 c 5.964839,1.33594 12.253909,2.44141 18.800779,3.29297 9.97656,1.28906 20.54688,1.98828 31.49219,1.98828 v -0.57031 c -10.92969,0 -21.48047,-0.69141 -31.41797,-1.98047 -6.51562,-0.84375 -12.77344,-1.9414 -18.710939,-3.27344 z m -0.42187,1.42188 -0.16016,0.54687 c 6.085939,1.37891 12.519529,2.51563 19.218749,3.38282 9.97656,1.29297 20.54688,1.98828 31.49219,1.98828 v -0.57031 c -10.92969,0 -21.48047,-0.69141 -31.41797,-1.98047 -6.67187,-0.86328 -13.07422,-1.9961 -19.132809,-3.36719 z m -0.41016,1.42578 -0.15625,0.54297 c 6.207029,1.42187 12.773439,2.58984 19.624999,3.47656 9.97656,1.29297 20.54688,1.98828 31.49219,1.98828 v -0.5664 c -10.92969,0 -21.48047,-0.69532 -31.41797,-1.98047 -6.82422,-0.88281 -13.36328,-2.04688 -19.542969,-3.46094 z m -0.39844,1.42578 c 6.300789,1.45313 12.972659,2.64844 19.941409,3.55078 9.9375,1.28907 20.48828,1.98047 31.41797,1.98047 v 0.56641 c -10.94531,0 -21.51563,-0.69531 -31.49219,-1.98438 -6.99609,-0.90625 -13.69531,-2.10547 -20.015619,-3.5664 z m -0.38671,1.42578 c 6.414059,1.4961 13.218749,2.72266 20.328119,3.64453 9.9375,1.28516 20.48828,1.98047 31.41797,1.98047 v 0.56641 c -10.94531,0 -21.51563,-0.69531 -31.49219,-1.98828 -7.13672,-0.92578 -13.96484,-2.15625 -20.398439,-3.65235 z m -0.3711,1.4336 c 6.519529,1.53125 13.449219,2.78515 20.699219,3.72656 9.9375,1.28906 20.48828,1.98047 31.41797,1.98047 v 0.5664 c -10.94531,0 -21.51563,-0.69531 -31.49219,-1.98828 -7.27344,-0.9414 -14.22656,-2.19922 -20.765619,-3.73828 z m -0.36719,1.42968 c 6.632819,1.57422 13.683599,2.85547 21.066409,3.81641 9.9375,1.28516 20.48828,1.98047 31.41797,1.98047 v 0.5625 c -10.94531,0 -21.51563,-0.69531 -31.49219,-1.98438 -7.40625,-0.96093 -14.48047,-2.25 -21.128899,-3.82421 z m -0.35546,1.42969 -0.13282,0.55078 c 6.749999,1.61719 13.941409,2.9336 21.480469,3.91016 9.97656,1.29297 20.54688,1.98828 31.49219,1.98828 v -0.56641 c -10.92969,0 -21.48047,-0.6914 -31.41797,-1.98046 -7.51562,-0.97657 -14.6875,-2.28907 -21.421869,-3.90235 z m -0.34375,1.4336 -0.13282,0.55078 c 6.847659,1.65625 14.156249,3.0039 21.824219,3.99609 9.97656,1.28906 20.54688,1.98438 31.49219,1.98438 v -0.56641 c -10.92969,0 -21.48047,-0.69141 -31.41797,-1.98047 -7.64453,-0.98828 -14.93359,-2.33203 -21.765619,-3.98437 z m -0.33985,1.4375 -0.1289,0.55078 c 6.94531,1.6914 14.371089,3.0664 22.160149,4.07422 9.97656,1.29296 20.54688,1.98828 31.49219,1.98828 v -0.56641 c -10.92969,0 -21.48047,-0.69531 -31.41797,-1.98047 -7.77344,-1.00781 -15.175779,-2.3789 -22.105469,-4.0664 z m -0.33203,1.43359 -0.12891,0.55078 c 7.04297,1.73047 14.578129,3.13281 22.492189,4.16016 9.97656,1.28906 20.54688,1.98437 31.49219,1.98437 v -0.5664 c -10.92969,0 -21.48047,-0.69141 -31.41797,-1.98047 -7.89844,-1.02344 -15.414059,-2.42188 -22.437499,-4.14844 z m -0.32812,1.4375 c 7.12109,1.76172 14.749999,3.1875 22.765619,4.22656 9.9375,1.28906 20.48828,1.98047 31.41797,1.98047 v 0.57031 c -10.94531,0 -21.51563,-0.69531 -31.49219,-1.98828 -8.03906,-1.04297 -15.683589,-2.46875 -22.816399,-4.23437 z m -0.32422,1.4375 c 7.21484,1.80078 14.949219,3.25391 23.089839,4.30469 9.9375,1.28906 20.48828,1.98047 31.41797,1.98047 v 0.57031 c -10.94531,0 -21.51563,-0.69531 -31.49219,-1.98828 -8.15625,-1.05469 -15.910149,-2.51172 -23.136719,-4.3125 z m -0.31641,1.4375 c 7.30469,1.83594 15.148439,3.31641 23.406249,4.38672 9.9375,1.28906 20.48828,1.98047 31.41797,1.98047 v 0.57031 c -10.94531,0 -21.51563,-0.69922 -31.49219,-1.98828 -8.27734,-1.07422 -16.132809,-2.55469 -23.449219,-4.39453 z m -0.30859,1.44141 c 7.39062,1.87109 15.339839,3.3789 23.714839,4.46093 9.9375,1.28907 20.48828,1.98047 31.41797,1.98047 v 0.570305 c -10.94531,0 -21.51563,-0.695305 -31.49219,-1.988275 -8.39062,-1.08593 -16.355469,-2.59765 -23.757809,-4.47265 z m -0.30469,1.4375 -0.11719,0.55468 c 7.48828,1.91016 15.554689,3.44532 24.062499,4.546875 9.97656,1.29297 20.54688,1.98828 31.49219,1.98828 v -0.56641 c -10.92969,0 -21.48047,-0.69531 -31.41797,-1.980465 -8.49219,-1.10156 -16.542969,-2.63671 -24.019529,-4.54296 z m -0.30078,1.4375 -0.11719,0.55468 c 7.57422,1.94532 15.742189,3.511715 24.363279,4.628905 9.97656,1.28906 20.54688,1.98437 31.49219,1.98437 v -0.56639 c -10.92969,0 -21.48047,-0.69141 -31.41797,-1.98047 -8.60547,-1.113285 -16.761719,-2.675785 -24.320309,-4.621095 z m -0.29688,1.4414 -0.11718,0.5586 c 7.65625,1.980455 15.925779,3.570315 24.660149,4.699205 9.97656,1.29297 20.54688,1.9883 31.49219,1.9883 v -0.56641 c -10.92969,0 -21.48047,-0.69531 -31.41797,-1.98047 -8.71875,-1.12891 -16.972659,-2.718755 -24.617189,-4.699225 z m -0.29297,1.44141 -0.11328,0.55469 c 7.73438,2.019525 16.105469,3.632805 24.949219,4.777335 9.97656,1.29297 20.54688,1.98828 31.49219,1.98828 v -0.56641 c -10.92969,0 -21.48047,-0.69531 -31.41797,-1.98045 -8.83203,-1.14455 -17.187499,-2.75783 -24.910159,-4.773445 z m -0.29296,1.441395 c 7.80859,2.05079 16.261709,3.69141 25.203119,4.85157 9.9375,1.28515 20.48828,1.98047 31.41797,1.98047 v 0.5625 c -10.94531,0 -21.51563,-0.69532 -31.49219,-1.98438 -8.95312,-1.16016 -17.421869,-2.80078 -25.238279,-4.85156 z m -0.28516,1.44141 c 7.88672,2.08594 16.437499,3.75391 25.488279,4.92578 9.9375,1.28516 20.48828,1.98047 31.41797,1.98047 v 0.56641 c -10.94531,0 -21.51563,-0.69532 -31.49219,-1.98828 -9.0625,-1.17188 -17.624999,-2.83985 -25.523439,-4.92579 z m -0.28125,1.44531 c 7.96484,2.1211 16.609369,3.8086 25.769529,4.9961 9.9375,1.28906 20.48828,1.98047 31.41797,1.98047 v 0.5664 c -10.94531,0 -21.51563,-0.69531 -31.49219,-1.98437 -9.16797,-1.1875 -17.828119,-2.88282 -25.800779,-5.00391 z m -0.27734,1.4375 c 8.03906,2.16016 16.781249,3.87891 26.046869,5.07813 9.9375,1.28515 20.48828,1.98047 31.41797,1.98047 v 0.5625 c -10.94531,0 -21.51563,-0.69141 -31.49219,-1.98438 -9.27734,-1.19922 -18.031249,-2.92187 -26.082029,-5.07812 z m -0.27735,1.44532 c 8.11719,2.1914 16.953129,3.93359 26.324219,5.14843 9.9375,1.28907 20.48828,1.98047 31.41797,1.98047 v 0.56641 c -10.94531,0 -21.51563,-0.69531 -31.49219,-1.98438 -9.38281,-1.21875 -18.230469,-2.96093 -26.351559,-5.15234 z m -0.27344,1.44531 c 8.19141,2.22265 17.121099,3.99219 26.597659,5.21875 9.9375,1.28906 20.48828,1.98047 31.41797,1.98047 v 0.5664 c -10.94531,0 -21.51563,-0.6914 -31.49219,-1.98437 -9.48828,-1.23047 -18.429689,-3 -26.624999,-5.22266 z m -0.26562,1.4414 c 8.26172,2.26172 17.285159,4.05469 26.863279,5.29688 9.9375,1.28516 20.48828,1.97656 31.41797,1.97656 v 0.57031 c -10.94531,0 -21.51563,-0.69531 -31.49219,-1.98437 -9.58984,-1.24609 -18.624999,-3.03906 -26.894529,-5.30078 z m -0.26953,1.44532 c 8.33594,2.29297 17.449219,4.11328 27.132809,5.36718 9.9375,1.28907 20.48828,1.98047 31.41797,1.98047 v 0.56641 c -10.94531,0 -21.51563,-0.69141 -31.49219,-1.98438 -9.69531,-1.25781 -18.816399,-3.07812 -27.160149,-5.37109 z m -0.26172,1.44531 c 8.40625,2.32812 17.609369,4.17187 27.394529,5.4375 9.9375,1.28906 20.48828,1.98047 31.41797,1.98047 v 0.57031 c -10.94531,0 -21.51563,-0.69531 -31.49219,-1.98828 -9.79687,-1.26953 -19.007809,-3.11328 -27.421869,-5.44141 z m -0.26172,1.44531 c 8.48047,2.36328 17.769529,4.23047 27.656249,5.51172 9.9375,1.28516 20.48828,1.98047 31.41797,1.98047 v 0.56641 c -10.94531,0 -21.51563,-0.69532 -31.49219,-1.98829 -9.89844,-1.28125 -19.195309,-3.14843 -27.679689,-5.51171 z m -0.25781,1.44141 c 8.54687,2.39844 17.929689,4.29297 27.914059,5.58594 9.9375,1.28906 20.48828,1.98046 31.41797,1.98046 v 0.56641 c -10.94531,0 -21.51563,-0.69531 -31.49219,-1.98437 -9.99609,-1.29688 -19.386719,-3.19141 -27.941399,-5.58594 z m -0.25391,1.44531 -0.10156,0.5625 c 8.62109,2.42969 18.101559,4.34766 28.195309,5.65625 9.97656,1.29297 20.54688,1.98828 31.49219,1.98828 v -0.56639 c -10.92969,0 -21.48047,-0.69533 -31.41797,-1.98047 -10.08594,-1.30861 -19.550779,-3.22658 -28.167969,-5.66017 z m -0.2539,1.44531 -0.0977,0.5625 c 8.69141,2.46486 18.249999,4.40625 28.445309,5.72658 9.97656,1.29295 20.54688,1.98828 31.49219,1.98828 v -0.56641 c -10.92969,0 -21.48047,-0.69531 -31.41797,-1.98047 -10.18359,-1.32031 -19.738279,-3.26562 -28.421869,-5.73047 z m -0.25,1.44922 -0.0937,0.55078 c 12.10546,3.45703 25.917959,5.90236 40.781249,7.05469 l 0.0977,0.008 c 0.29688,0.0195 0.58985,0.043 0.88672,0.0664 l 0.10938,0.008 c 0.29296,0.0195 0.58984,0.043 0.88671,0.0625 l 0.10157,0.008 c 0.30078,0.0195 0.59765,0.0391 0.89453,0.0586 l 0.12109,0.008 c 0.28516,0.0156 0.56641,0.0352 0.85156,0.0547 l 0.17969,0.008 0.81641,0.0508 0.17578,0.0117 0.80859,0.043 0.23438,0.0117 0.77344,0.0391 1.0664,0.0508 0.12891,0.004 c 0.28125,0.0117 0.5664,0.0273 0.84765,0.0391 l 0.21094,0.004 0.80469,0.0352 0.19141,0.004 c 0.27734,0.0117 0.55468,0.0195 0.82812,0.0273 l 0.20313,0.008 c 0.29687,0.0117 0.58984,0.0195 0.88671,0.0273 l 0.0781,0.004 c 0.28906,0.008 0.58203,0.0117 0.87109,0.0234 l 0.19532,0.004 c 0.29687,0.008 0.59375,0.0117 0.89062,0.0195 h 0.0742 l 0.082,0.004 c 0.66016,0.0117 1.32031,0.0234 1.98438,0.0312 h 0.0508 c 0.32812,0.004 0.66015,0.008 0.98437,0.0117 h 0.0352 c 0.33594,0 0.67187,0.004 1.00781,0.004 h 0.0156 c 0.34375,0 0.68359,0 1.02734,0 v -0.5625 c -10.92969,0 -21.48047,-0.69531 -31.41797,-1.98047 -10.28125,-1.33203 -19.921869,-3.30468 -28.671869,-5.80078 z m 60.089839,8.34375 c 0.33984,0 0.67969,0 1.02344,0 h 0.0156 c 0.33594,0 0.67188,-0.004 1.00391,-0.004 h 0.0352 c 0.32422,-0.004 0.64844,-0.008 0.97266,-0.0117 h 0.1875 l 0.83984,-0.0156 h 0.0703 l 0.10156,-0.004 0.84375,-0.0117 0.0859,-0.004 h 0.0703 c 0.29687,-0.008 0.59766,-0.0117 0.89453,-0.0195 l 0.18359,-0.004 c 0.29688,-0.0117 0.59375,-0.0156 0.88672,-0.0234 l 0.0586,-0.004 c 0.32422,-0.008 0.65234,-0.0156 0.97656,-0.0273 h 0.0234 c 0.32031,-0.0117 0.63672,-0.0234 0.95312,-0.0352 l 0.11328,-0.004 c 0.3086,-0.0117 0.61328,-0.0234 0.92188,-0.0352 l 0.0977,-0.004 c 0.30469,-0.0117 0.60547,-0.0234 0.91016,-0.0391 l 0.10938,-0.004 c 0.27734,-0.0117 0.55468,-0.0273 0.83593,-0.0391 l 0.27735,-0.0156 0.75,-0.0352 0.20312,-0.0117 c 0.25781,-0.0156 0.51953,-0.0273 0.78125,-0.043 l 0.23047,-0.0117 c 0.27734,-0.0156 0.55078,-0.0352 0.82813,-0.0508 l 0.13281,-0.004 c 0.30078,-0.0195 0.60156,-0.043 0.90234,-0.0586 l 0.0625,-0.004 c 0.30078,-0.0195 0.60547,-0.0391 0.90625,-0.0625 l 0.10938,-0.008 c 0.30859,-0.0195 0.61328,-0.043 0.92187,-0.0664 h 0.0508 c 0.29297,-0.0234 0.58594,-0.0469 0.88282,-0.0664 l 0.16015,-0.0117 c 14.83594,-1.15234 28.625,-3.58984 40.71485,-7.04297 l -0.10157,-0.54687 c -8.74218,2.49218 -18.37109,4.45703 -28.64062,5.78515 -9.92969,1.28516 -20.46875,1.98047 -31.38672,1.98047 z m 59.87109,-9.21094 -0.0977,-0.5625 c -8.67578,2.46094 -18.21875,4.39844 -28.38672,5.71486 -9.92969,1.28514 -20.46875,1.97656 -31.38672,1.97656 v 0.56641 c -0.15625,0 -0.28516,-0.125 -0.28516,-0.28516 0,-0.15625 0.12891,-0.28125 0.28516,-0.28125 0.15625,0 0.28125,0.125 0.28125,0.28125 0,0.16016 -0.125,0.28516 -0.28125,0.28516 10.92969,0 21.49609,-0.69141 31.46094,-1.98047 10.17968,-1.32031 19.73047,-3.25781 28.41015,-5.71486 z m -0.25781,-1.44531 -0.0977,-0.5625 c -8.60546,2.42578 -18.0625,4.33986 -28.1289,5.64453 -9.92969,1.28516 -20.46875,1.97658 -31.38672,1.97658 v 0.56639 c -0.15625,0 -0.28516,-0.12889 -0.28516,-0.28514 0,-0.15625 0.12891,-0.28125 0.28516,-0.28125 0.15625,0 0.28125,0.125 0.28125,0.28125 0,0.15625 -0.125,0.28514 -0.28125,0.28514 10.92969,0 21.49609,-0.69531 31.46094,-1.98437 10.07812,-1.30469 19.54297,-3.21875 28.15234,-5.64063 z m -0.25781,-1.44531 c -8.54297,2.38672 -17.91797,4.27734 -27.89453,5.57031 -9.96485,1.28906 -20.53125,1.98047 -31.46094,1.98047 0.15625,0 0.28125,-0.125 0.28125,-0.28516 0,-0.15234 -0.125,-0.28125 -0.28125,-0.28125 -0.15625,0 -0.28516,0.12891 -0.28516,0.28125 0,0.16016 0.12891,0.28516 0.28516,0.28516 v -0.56641 c 10.91797,0 21.45703,-0.69139 31.38672,-1.97656 9.96875,-1.28906 19.33203,-3.17969 27.87109,-5.57031 z m -0.25781,-1.44531 c -8.47266,2.35547 -17.75782,4.21875 -27.63672,5.49609 -9.96485,1.29297 -20.53125,1.98438 -31.46094,1.98438 0.15625,0 0.28125,-0.12891 0.28125,-0.28516 0,-0.15234 -0.125,-0.28125 -0.28125,-0.28125 -0.15625,0 -0.28516,0.12891 -0.28516,0.28125 0,0.15625 0.12891,0.28516 0.28516,0.28516 v -0.56641 c 10.91797,0 21.45703,-0.69141 31.38672,-1.97656 9.86719,-1.27735 19.14453,-3.14063 27.61328,-5.5 z m -0.25782,-1.44532 c -8.40234,2.32032 -17.60156,4.16016 -27.3789,5.42579 -9.96485,1.28906 -20.53125,1.98437 -31.46094,1.98437 0.15625,0 0.28125,-0.12891 0.28125,-0.28516 0,-0.15625 -0.125,-0.28514 -0.28125,-0.28514 -0.15625,0 -0.28516,0.12889 -0.28516,0.28514 0,0.15625 0.12891,0.28516 0.28516,0.28516 v -0.57031 c 10.91797,0 21.45703,-0.6875 31.38672,-1.97266 9.76562,-1.26562 18.95703,-3.10547 27.35156,-5.42969 z m -0.25781,-1.44531 c -8.33203,2.28516 -17.44141,4.10156 -27.12109,5.35156 -9.96485,1.29297 -20.53125,1.98438 -31.46094,1.98438 0.15625,0 0.28125,-0.125 0.28125,-0.28125 0,-0.15625 -0.125,-0.28516 -0.28125,-0.28516 -0.15625,0 -0.28516,0.12891 -0.28516,0.28516 0,0.15625 0.12891,0.28125 0.28516,0.28125 v -0.56641 c 10.91797,0 21.45703,-0.6914 31.38672,-1.97656 9.66797,-1.25 18.76953,-3.06641 27.09375,-5.35156 z m -0.25781,-1.44531 c -8.26172,2.25 -17.28516,4.04297 -26.86328,5.28125 -9.96485,1.28906 -20.53125,1.98437 -31.46094,1.98437 0.15625,0 0.28125,-0.1289 0.28125,-0.28515 0,-0.15625 -0.125,-0.28516 -0.28125,-0.28516 -0.15625,0 -0.28516,0.12891 -0.28516,0.28516 0,0.15625 0.12891,0.28515 0.28516,0.28515 v -0.57031 c 10.91797,0 21.45703,-0.6875 31.38672,-1.97265 9.5664,-1.23829 18.57812,-3.03125 26.83594,-5.28516 z m -58.32422,17.88281 c -0.15625,0 -0.28516,-0.125 -0.28516,-0.28125 0,-0.15625 0.12891,-0.28125 0.28516,-0.28125 0.15625,0 0.28125,0.125 0.28125,0.28125 0,0.15625 -0.125,0.28125 -0.28125,0.28125"
     fill-opacity="1"
     fill-rule="nonzero"
     id="path268" />
  <g
     clip-path="url(#id2)"
     id="g272"
     transform="translate(-46.06888,-65.627335)">
    <path
       fill="#a4a4a3"
       d="m 110.40234,221.43359 c 12.08594,-2.02734 54.51563,1.17578 66.85547,5.07422 2.33203,0.73438 4.58594,1.86328 6.26563,3.57422 1.71484,1.75391 2.78906,3.96094 2.78906,6.74609 0,10.25391 -4.74609,18.01563 -8.08594,25.25782 -2.24609,4.8789 -4.84375,9.11328 -8.51172,12.51562 -4.78515,4.4336 -9.82812,6.40235 -15.41406,7.48828 -10.07422,1.96875 -26.42187,2.95313 -35.90625,-0.19531 -10.59765,-4.04687 -15.60937,-32.07031 -17.49219,-50.42187 0,-2.81641 1.10157,-5.10938 2.87891,-6.84766 1.72656,-1.6875 4.09375,-2.76563 6.62109,-3.19141 z m 0.082,13.79297 c -0.95704,0.55078 1.0664,32.98828 10.0625,39.71875 1.39062,1.03516 4.43359,1.64453 8.24999,1.98828 9.11329,0.81641 23.64454,1.3711 34.19532,-5.91797 8.35937,-5.77343 14.02734,-17.23828 13.86328,-32.0039 1.375,-12.82813 -60.89453,-8.62891 -66.37109,-3.78516"
       fill-opacity="1"
       fill-rule="nonzero"
       id="path270" />
  </g>
  <g
     clip-path="url(#id3)"
     id="g276"
     transform="translate(-46.06888,-65.627335)">
    <path
       fill="#a4a4a3"
       d="m 274.78125,221.43359 c -12.08594,-2.02734 -54.51953,1.17578 -66.85547,5.07422 -2.33203,0.73438 -4.58594,1.86328 -6.26562,3.57422 -1.71485,1.75391 -2.78907,3.96094 -2.78907,6.74609 0,10.25391 4.75,18.01563 8.08594,25.25782 2.24609,4.8789 4.84766,9.11328 8.51563,12.51562 4.77734,4.4336 9.82421,6.40235 15.41015,7.48828 10.07422,1.96875 26.42578,2.95313 35.90625,-0.19531 10.59766,-4.04687 15.60547,-32.07031 17.49219,-50.42187 0,-2.81641 -1.10156,-5.10938 -2.87891,-6.84766 -1.72265,-1.6875 -4.09375,-2.76563 -6.62109,-3.19141 z m -0.0781,13.79297 c 0.95313,0.55078 -1.07031,32.98828 -10.0664,39.71875 -1.38672,1.03516 -4.4336,1.64453 -8.25,1.98828 -9.11328,0.81641 -23.64453,1.3711 -34.19531,-5.91797 -8.35938,-5.77343 -14.02735,-17.23828 -13.86329,-32.0039 -1.37109,-12.82813 60.89454,-8.62891 66.375,-3.78516"
       fill-opacity="1"
       fill-rule="nonzero"
       id="path274" />
  </g>
  <path
     fill="#a4a4a3"
     d="m 59.513151,167.92735 c 0,-2.50781 -2.03125,-4.53906 -4.54297,-4.53906 -2.507811,0 -4.539061,2.03125 -4.539061,4.53906 v 7.8711 c 0,2.50781 2.03125,4.53906 4.539061,4.53906 2.51172,0 4.54297,-2.03125 4.54297,-4.53906 v -7.8711"
     fill-opacity="1"
     fill-rule="nonzero"
     id="path278" />
  <path
     fill="#a4a4a3"
     d="m 233.53268,167.92735 c 0,-2.50781 2.03125,-4.53906 4.53906,-4.53906 2.50782,0 4.54297,2.03125 4.54297,4.53906 v 7.8711 c 0,2.50781 -2.03515,4.53906 -4.54297,4.53906 -2.50781,0 -4.53906,-2.03125 -4.53906,-4.53906 v -7.8711"
     fill-opacity="1"
     fill-rule="nonzero"
     id="path280" />
  <path
     fill="#a4a4a3"
     d="m 135.98971,169.27501 c -3.34375,0 -3.76953,5.40235 -3.76953,11.89062 0,6.48828 0.14844,6.53125 3.49219,6.53125 7.59766,-4.36328 14.57031,-4.0039 21.05469,0 3.34375,0 4.20312,-0.18359 4.20312,-6.67187 -2.62109,-6.28515 -1.07422,-11.71093 -3.92578,-11.75 h -21.05469"
     fill-opacity="1"
     fill-rule="nonzero"
     id="path282" />
  <path
     fill="#0fc2d4"
     d="m 130.78659,173.38438 c 1.375,-12.82812 -60.894529,-8.6289 -66.371099,-3.78515 -0.95703,0.55078 1.06641,32.98827 10.0625,39.71875 1.39063,1.03516 4.4336,1.64452 8.25,1.98827 9.11329,0.81641 23.644539,1.3711 34.195319,-5.91796 8.35937,-5.77344 14.02734,-17.23829 13.86328,-32.00391"
     fill-opacity="1"
     fill-rule="evenodd"
     id="path284" />
  <path
     fill="#0fc2d4"
     d="m 162.25924,173.38438 c -0.16406,14.76563 5.50391,26.23047 13.86329,32.00391 10.55078,7.28906 25.08203,6.73437 34.19531,5.91796 3.8164,-0.34375 6.86328,-0.95312 8.25,-1.98827 8.99609,-6.73048 11.01953,-39.16797 10.0664,-39.71875 -5.48046,-4.84375 -67.74609,-9.04297 -66.375,3.78515"
     fill-opacity="1"
     fill-rule="evenodd"
     id="path286" />
  <path
     fill="#ffffff"
     d="m 106.1694,204.57189 h 2.76563 l -7.32032,-11.51563 h 4.78907 v -2.02343 h -6.07422 l -2.570319,-4.03907 h 8.640629 v -2.01953 h -8.597659 l 10.324219,-15.92578 h -2.64453 l -9.757809,14.96093 -9.5586,-14.96093 h -2.8164 l 10.17969,15.92578 h -8.6211 v 2.01953 h 8.71094 l -2.60547,4.03907 h -6.10547 v 2.02343 h 4.80078 l -7.42187,11.51563 h 2.73828 l 7.50781,-11.51563 h 6.24219 z m -12.320309,-13.53906 1.82812,-2.80469 1.80078,2.80469 z m 0,0"
     fill-opacity="1"
     fill-rule="nonzero"
     id="path288" />
  <path
     fill="#ffffff"
     d="m 209.4819,204.57189 h 2.76172 l -7.31641,-11.51563 h 4.78516 v -2.02343 h -6.07031 l -2.57032,-4.03907 h 8.64063 v -2.01953 h -8.59766 l 10.32032,-15.92578 h -2.64063 l -9.76172,14.96093 -9.55469,-14.96093 h -2.8164 l 10.17969,15.92578 h -8.6211 v 2.01953 h 8.71094 l -2.60547,4.03907 h -6.10547 v 2.02343 h 4.80078 l -7.42578,11.51563 h 2.74219 l 7.50781,-11.51563 h 6.24219 z m -12.32031,-13.53906 1.82812,-2.80469 1.80078,2.80469 z m 0,0"
     fill-opacity="1"
     fill-rule="nonzero"
     id="path290" />
</svg>
