<?xml version="1.0" encoding="UTF-8" standalone="no"?>
<!-- Created with Inkscape (http://www.inkscape.org/) -->

<svg
   version="1.1"
   id="svg2"
   width="1372"
   height="1370"
   viewBox="0 0 1372 1370"
   sodipodi:docname="x.svg"
   inkscape:version="1.2.2 (1:1.2.2+202212051552+b0a8486541)"
   xmlns:inkscape="http://www.inkscape.org/namespaces/inkscape"
   xmlns:sodipodi="http://sodipodi.sourceforge.net/DTD/sodipodi-0.dtd"
   xmlns="http://www.w3.org/2000/svg"
   xmlns:svg="http://www.w3.org/2000/svg">
  <defs
     id="defs6" />
  <sodipodi:namedview
     id="namedview4"
     pagecolor="#ffffff"
     bordercolor="#000000"
     borderopacity="0.25"
     inkscape:showpageshadow="2"
     inkscape:pageopacity="0.0"
     inkscape:pagecheckerboard="0"
     inkscape:deskcolor="#d1d1d1"
     showgrid="false"
     inkscape:zoom="0.2463495"
     inkscape:cx="1347.6788"
     inkscape:cy="755.02486"
     inkscape:window-width="1440"
     inkscape:window-height="863"
     inkscape:window-x="0"
     inkscape:window-y="0"
     inkscape:window-maximized="1"
     inkscape:current-layer="g10">
    <inkscape:page
       x="0"
       y="0"
       id="page8"
       width="1372"
       height="1370" />
  </sodipodi:namedview>
  <g
     id="g10"
     inkscape:groupmode="layer"
     inkscape:label="Page 1"
     transform="matrix(1.3333333,0,0,-1.3333333,0,1333.3333)">
    <g
       id="g12"
       transform="matrix(0.1,0,0,0.1,-1192.43,-27)">
      <path
         d="m 17753.2,5000 1574.1,1574.14 c 150,150.02 150.1,394.12 0.1,544.06 -72.6,72.68 -169.2,112.72 -272,112.72 -102.7,0 -199.3,-40.04 -271.9,-112.68 L 17209.3,5544.02 15635.2,7118.24 c -72.6,72.68 -169.2,112.68 -272,112.68 -102.8,0 -199.4,-40 -272.1,-112.72 -149.8,-149.98 -149.8,-393.97 0.1,-543.91 L 16665.4,5000 15091.2,3425.78 c -72.6,-72.64 -112.7,-169.24 -112.7,-272.01 0,-102.76 40.1,-199.3 112.7,-271.86 72.6,-72.64 169.2,-112.68 271.9,-112.68 102.6,0 199.2,39.97 272.1,112.68 l 1574.1,1574.22 1574.2,-1574.22 c 72.6,-72.64 169.2,-112.68 271.9,-112.68 102.9,0 199.6,40.04 272,112.68 72.6,72.64 112.7,169.24 112.7,272.02 0,102.75 -40.1,199.28 -112.7,271.85 L 17753.2,5000"
         style="fill:#100f0d;fill-opacity:1;fill-rule:nonzero;stroke:none"
         id="path14" />
      <path
         d="m 17209.3,10000 c -2757,0 -5000,-2242.98 -5000,-5000 0,-2756.99 2243,-5000 5000,-5000 2757,0 5000,2243.01 5000,5000 0,2757.02 -2243,5000 -5000,5000 z m 0,-9230.77 c -2332.9,0 -4230.8,1897.92 -4230.8,4230.77 0,2332.86 1897.9,4230.77 4230.8,4230.77 2332.8,0 4230.8,-1897.91 4230.8,-4230.77 0,-2332.85 -1898,-4230.77 -4230.8,-4230.77"
         style="fill:#100f0d;fill-opacity:1;fill-rule:nonzero;stroke:none"
         id="path16" />
    </g>
    <g
       id="g184"
       transform="matrix(0.1,0,0,0.1,-1220.93,0)"
       style="fill:#ffffff">
      <path
         d="m 17753.2,5000 1574.1,1574.14 c 150,150.02 150.1,394.12 0.1,544.06 -72.6,72.68 -169.2,112.72 -272,112.72 -102.7,0 -199.3,-40.04 -271.9,-112.68 L 17209.3,5544.02 15635.2,7118.24 c -72.6,72.68 -169.2,112.68 -272,112.68 -102.8,0 -199.4,-40 -272.1,-112.72 -149.8,-149.98 -149.8,-393.97 0.1,-543.91 L 16665.4,5000 15091.2,3425.78 c -72.6,-72.64 -112.7,-169.24 -112.7,-272.01 0,-102.76 40.1,-199.3 112.7,-271.86 72.6,-72.64 169.2,-112.68 271.9,-112.68 102.6,0 199.2,39.97 272.1,112.68 l 1574.1,1574.22 1574.2,-1574.22 c 72.6,-72.64 169.2,-112.68 271.9,-112.68 102.9,0 199.6,40.04 272,112.68 72.6,72.64 112.7,169.24 112.7,272.02 0,102.75 -40.1,199.28 -112.7,271.85 L 17753.2,5000"
         style="fill:#ffffff;fill-opacity:1;fill-rule:nonzero;stroke:none"
         id="path180" />
      <path
         d="m 17209.3,10000 c -2757,0 -5000,-2242.98 -5000,-5000 0,-2756.99 2243,-5000 5000,-5000 2757,0 5000,2243.01 5000,5000 0,2757.02 -2243,5000 -5000,5000 z m 0,-9230.77 c -2332.9,0 -4230.8,1897.92 -4230.8,4230.77 0,2332.86 1897.9,4230.77 4230.8,4230.77 2332.8,0 4230.8,-1897.91 4230.8,-4230.77 0,-2332.85 -1898,-4230.77 -4230.8,-4230.77"
         style="fill:#ffffff;fill-opacity:1;fill-rule:nonzero;stroke:none"
         id="path182" />
    </g>
  </g>
</svg>
